<?xml version="1.0" encoding="utf-8"?>
<!-- Generator: Adobe Illustrator 27.3.1, SVG Export Plug-In . SVG Version: 6.00 Build 0)  -->
<svg version="1.1" id="Layer_2_00000072246824497047557200000003276225096065795734_"
	 xmlns="http://www.w3.org/2000/svg" xmlns:xlink="http://www.w3.org/1999/xlink" x="0px" y="0px" viewBox="0 0 403.6 403.6"
	 style="enable-background:new 0 0 403.6 403.6;" xml:space="preserve">
<style type="text/css">
	.st0{fill:#D53B1F;stroke:#D53B1F;stroke-miterlimit:10;}
	.st1{fill:#FA5237;stroke:#FA5237;stroke-miterlimit:10;}
	.st2{fill:#FF9A7C;stroke:#FF9A7C;stroke-miterlimit:10;}
	.st3{fill:#FFFFFF;stroke:#FFFFFF;stroke-miterlimit:10;}
	.st4{fill:#011226;stroke:#011226;stroke-miterlimit:10;}
	.st5{fill:#FA5333;stroke:#FA5333;stroke-miterlimit:10;}
	.st6{fill:#FF6B4F;stroke:#FF6B4F;stroke-miterlimit:10;}
	.st7{fill:#BA3428;stroke:#BA3428;stroke-miterlimit:10;}
	.st8{fill:#F74D34;stroke:#F74D34;stroke-miterlimit:10;}
	.st9{fill:#A6C3D1;stroke:#A6C3D1;stroke-miterlimit:10;}
	.st10{fill:#A82312;stroke:#A82312;stroke-miterlimit:10;}
	.st11{fill:#3E6586;stroke:#3E6586;stroke-miterlimit:10;}
	.st12{fill:none;stroke:#FFFFFF;stroke-miterlimit:10;}
	.st13{fill:#2F4A68;stroke:#03132A;stroke-miterlimit:10;}
	.st14{fill:#7397B1;stroke:#7397B1;stroke-miterlimit:10;}
	.st15{fill:#2F4A68;}
	.st16{fill:#779CB6;stroke:#779CB6;stroke-miterlimit:10;}
	.st17{fill:#839CBA;stroke:#839CBA;stroke-miterlimit:10;}
	.st18{fill:#2A4560;stroke:#2A4560;stroke-miterlimit:10;}
	.st19{fill:#3E5D7C;stroke:#3E5D7C;stroke-miterlimit:10;}
	.st20{fill:#1E3F5E;stroke:#1E3F5E;stroke-miterlimit:10;}
	.st21{fill:#B26458;stroke:#B26458;stroke-miterlimit:10;}
	.st22{fill:#001129;stroke:#001129;stroke-miterlimit:10;}
	.st23{fill:#09182D;stroke:#09182D;stroke-miterlimit:10;}
	.st24{fill:#061630;stroke:#061630;stroke-miterlimit:10;}
	.st25{fill:#03122F;stroke:#03122F;stroke-miterlimit:10;}
	.st26{fill:#02142A;stroke:#02142A;stroke-miterlimit:10;}
	.st27{fill:#000D24;stroke:#000D24;stroke-miterlimit:10;}
	.st28{fill:#1B3448;stroke:#1B3448;stroke-miterlimit:10;}
	.st29{fill:#638493;stroke:#638493;stroke-miterlimit:10;}
	.st30{fill:#0E1F3B;stroke:#0E1F3B;stroke-miterlimit:10;}
	.st31{fill:#000F1F;stroke:#000F1F;stroke-miterlimit:10;}
	.st32{fill:#5F87A0;stroke:#5F87A0;stroke-miterlimit:10;}
	.st33{fill:#193656;stroke:#193656;stroke-miterlimit:10;}
	.st34{fill:#2F5270;stroke:#2F5270;stroke-miterlimit:10;}
	.st35{fill:#0F2B43;stroke:#0F2B43;stroke-miterlimit:10;}
	.st36{fill:#244662;stroke:#244662;stroke-miterlimit:10;}
	.st37{fill:#7093A9;stroke:#7093A9;stroke-miterlimit:10;}
</style>
<path class="st0" d="M142.2,280.8c10.7-11,28.7-27,38.1-33.7c6.3-4.3,12.3-9.7,16.1-14.6c6.8-7.4,12-16.7,13.7-27.3L180.8,176
	c-4.4,3.8-7.7,7.6-10,10.7c-2.1,2.8-5,6.5-7.7,12.3c-2.1,4.5-3.2,8.2-4.8,13.9c-1.2,4.1-1.6,6.1-3.6,14.8c-1.8,7.9-4.9,20.4-7,29.3
	c-0.8,3.6-1.5,7.2-2.3,10.8C145.3,267.8,142.2,280.8,142.2,280.8z"/>
<path class="st1" d="M155,259c9.2-8.3,16-14.3,20.9-18.5c5.2-4.1,14.8-13.9,19.8-21.4c-6.5,5.4-13,10.8-19.5,16.3l-0.3-3l-12.6,10.1
	c0.6-5.4,1.5-12.8,2.1-18.1C161.5,234.7,157.5,248,155,259z"/>
<path class="st2" d="M163,242.6l12.7-10.2l0.3,3.1c3.4-2.8,6.7-5.6,10.1-8.3c2.6-2.3,5.2-4.5,7.7-6.8c1.6-1.5,3.4-3.5,5.1-5.9
	c3.5-4.9,5.6-9.9,6.8-13.7l-19.6-19.5l-9.4,11.1c-6.5,9-8.2,15.5-10,25C165.6,223.9,164.2,232.4,163,242.6z"/>
<path class="st3" d="M172.8,227.7c6-4.8,10.7-9.2,14.2-12.5c6.7-6.2,10.9-12,14.3-18.8L190,185.1C179.8,195.2,177.7,205,172.8,227.7
	z"/>
<path class="st4" d="M243.4,186.2L243.4,186.2c0,0,0.6,0.4,0.6,0.4c0.3,0.2,0.7,1.2,1.1,4.6c0.2,4.1,0.6,5.2-0.7,13.2
	c-1.9,9.6-10.8,21.5-9.3,23.8c1.3,2,9.9-3.3,16.6-9.6c18.6-16.8,27.4-48.7,20.5-76.7c12.7-23.9,18.7-61.2,13.9-90.2
	c-27.1-0.8-57,16.5-73.5,41.6c-20.1-1.3-43.3,14.2-52.3,41.8c-5,16.1-5.1,20.3-4.1,21c1.8,1.3,6.6-9.9,17.3-16.3
	c5.8-3.4,11.3-4.2,15.2-4.3c-5.3,8.8-11.6,23.8-14.3,34.1l43.6,43.2C226.6,204.2,235,195.2,243.4,186.2L243.4,186.2z"/>
<path class="st5" d="M266.5,179c-3.5,17.2-12.7,27-15.9,30.1c2.1-9.1,2.2-20.3-1-30.1c5.6-6.9,12.6-17.8,16.8-26.4
	C267.6,157.7,268.9,167.5,266.5,179L266.5,179z"/>
<path class="st6" d="M262.9,87.2l-12.2-17.8c7.8-4.4,20.6-8.6,29.3-9.6l0,0c-1.4,2.1-4.4,5.8-6.1,7.9
	C269.4,73.8,267.4,76.7,262.9,87.2z"/>
<path class="st5" d="M188,111.6c-1.4,1-6,4.2-10.4,10.5c-2.3,3.2-3.9,6.3-4.9,8.6c6.3-3.5,10.9-4.5,18.7-4
	c3.1-7.3,8.3-15.7,12.4-20.7C200.3,106.2,194.3,107.3,188,111.6L188,111.6z"/>
<path class="st7" d="M264.2,157.1c2.1,18-4.3,32.6-12.2,43.4l-1.3,8.6c13.1-12.2,20.4-35.6,15.9-56.4
	C265.8,154.1,265,155.6,264.2,157.1L264.2,157.1z"/>
<path class="st3" d="M172.7,130.7c-1.6,1.5-3.1,3.1-4.7,4.7c3-9.6,10.6-20.8,18.9-26c2.2-1.7,5.2-3.7,8.8-5.3
	c4.5-1.9,8.5-2.6,11.5-2.8l-3.4,4.7C190.9,106.7,178.8,116.9,172.7,130.7L172.7,130.7z"/>
<path class="st3" d="M262.9,87.3l-12.2-18.1c-30,17.3-47.1,46.6-59.3,77.3l14.3,13.2c1.2-2.6,8-17,15.2-19.6
	c4.3-1.9,7.1,0.7,7.5,5.8C240.6,133.7,256.3,100,262.9,87.3L262.9,87.3z"/>
<path class="st8" d="M271.6,98.2l-8.7-10.9c3.8-8.3,11.3-20,17.1-26.4C278.5,72.2,275.1,87.6,271.6,98.2L271.6,98.2z"/>
<path class="st9" d="M271.6,98l-8.7-11c-5.6,11.1-22.1,46.4-34.5,58.8c0.6,2.6-0.2,6.8-1.1,8.8c-2.1,6.1-4.8,11.4-9.2,17
	c1.1,1.1,2.2,2.2,3.3,3.3c11.6-8.4,18.6-15.8,28.1-30.2c3.9-5.8,5.9-9,7.6-11.8c0,0,2-3.5,3.8-7C266.4,115.4,270.3,102.2,271.6,98z"
	/>
<path class="st10" d="M271.6,98.2c3.3-9.6,6.8-26.2,9-37c2.8,14.4,1.6,29.3-2.5,44.5L271.6,98.2z"/>
<path class="st11" d="M221.4,175.1c4.5-3.1,9.8-7.5,15.4-13.4c4.9-5.3,8.8-10.6,11.8-15.3c10.3-14.5,18.2-29.7,23-48.2l6.5,7.5
	c-8.1,31.9-23.8,60.2-45.4,81L221.4,175.1L221.4,175.1z"/>
<path class="st12" d="M191.4,146.5l14.3,13.2c1.5-2.6,12-24.5,20.3-19.4c8,8.3-6.3,28.8-7.9,31.5c4.9,5,9.7,9.9,14.6,14.9
	c28.4-26.7,55.4-81.4,48-127.5C238.1,65.4,207.2,101.7,191.4,146.5z"/>
<path class="st13" d="M262.9,105.9c0,9.9-6.3,17.8-14.2,17.8c-18.8-0.9-18.8-34.7,0-35.7C256.6,88.1,262.9,96.1,262.9,105.9z"/>
<path class="st14" d="M256.4,105.7c0,5.5-3.5,9.9-7.8,9.9c-10.4-0.5-10.4-19.2,0-19.8C252.9,95.8,256.4,100.2,256.4,105.7z"/>
<path class="st15" d="M244.5,114.8c2.3,0.9,6.5,0.2,8.8-2.9c1.9-1.9,3.5-7.1,0.9-10.3c0.9,0.5,1.5,0.8,2.5,1.4
	C258.3,111.9,251.2,119.3,244.5,114.8L244.5,114.8z"/>
<path class="st3" d="M249.8,98.7c2.1,1.1,4.1,2.3,6.2,3.4c-2.6-8.3-11.9-8.4-14.6-0.1c1.3,4.5,5.3,4.9,7.3,2.6
	C249.8,103.6,250.7,100.9,249.8,98.7z"/>
<polygon class="st16" points="190.8,160.1 199.7,168.8 193.2,178.3 185.6,170.1 "/>
<polygon class="st3" points="199.7,168.8 201.6,166 188.4,153.7 182.5,167.4 185.6,170.1 190.8,160.1 "/>
<polygon class="st17" points="216.3,181.9 214.6,184 224.1,193.8 226.1,191.7 "/>
<path class="st18" d="M216.2,200.8l2.4,2.3c2.5-2.7,5-5.3,7.5-8c1-1,0.9-3.1-0.5-4C222.5,194.3,219.3,197.6,216.2,200.8z"/>
<path class="st19" d="M208.3,193.2l6.3-9.2l9.5,9.8c-2.6,2.3-5.3,4.7-7.9,7C213.6,198.3,210.9,195.7,208.3,193.2z"/>
<path class="st20" d="M214.6,184c0.6-0.7,1.2-1.4,1.8-2.2c-0.8-1-1.7-2.1-2.5-3.1l-8.5,11.5l3,3L214.6,184z"/>
<path class="st3" d="M198,183.4c0.9,1.2,1.9,2.5,2.9,3.6c5.8-9.4,11.6-18.7,17.4-28.1c0.7-1.3,2.2-4.4,2.7-7.2
	c0.5-2,0.6-2.4,0.5-2.4c-0.3-0.3-2.1,2.1-2.2,2.3C212,161.4,198,183.4,198,183.4z"/>
<path class="st21" d="M198.9,184.6c3.3-5.8,20.3-34.4,22.5-35.3c0,0,0,0,0,0c0.2,0.1-0.2,2-0.5,3.1c-0.1,0.5-0.3,0.9-0.3,1
	c-0.1,0.4-0.5,1.4-1.2,2.9c-0.6,1.3-1.3,2.6-1.3,2.6c0,0-6.4,10.4-17.4,28.1C200.2,186.2,199.5,185.4,198.9,184.6z"/>
<path class="st22" d="M320.1,79.5v-5.7c0.3-3.2,3.9-3.5,4.5-0.4v6c1.6,0,3.2,0,4.9,0.1c2,1,1.8,4-0.2,4.9h-4.8c0,1.9,0,3.9,0,5.8
	c-0.6,3.1-4.1,3.2-4.7,0.1c0-2,0.1-3.9,0.1-5.9h-4.6c-3.4-0.6-2.8-4.9,0.6-4.9C317.3,79.5,318.7,79.5,320.1,79.5z"/>
<path class="st22" d="M304.1,125.6v-5.7c0.3-3.2,3.9-3.5,4.5-0.4v6h5.1c1.8,1,1.6,4.3-0.4,4.9h-4.8c0,1.9,0,3.9,0,5.8
	c-0.6,3.1-4.1,3.2-4.7,0.1c0-2,0.1-3.9,0.1-5.9h-4.6c-3.3-0.3-2.8-5,0.4-4.9H304.1L304.1,125.6z"/>
<path class="st22" d="M179.8,71.6v-7.8c0.5-4.4,5.3-4.8,6.2-0.5v8.3h6.9c2.5,1.4,2.2,5.9-0.5,6.8h-6.6c0,2.6,0,5.3-0.1,7.9
	c-0.8,4.3-5.6,4.4-6.5,0.2c0-2.7,0.1-5.4,0.1-8.1h-6.3c-1.7-0.1-3-1.5-3.1-3c-0.2-1.8,1.4-4,3.7-3.8L179.8,71.6L179.8,71.6z"/>
<path class="st23" d="M73.8,270.2l28-35.2c2.1-3.7-1.8-7.8-4.3-4.5l-27,34C68.3,267.6,70.8,271.9,73.8,270.2L73.8,270.2z"/>
<path class="st23" d="M286.1,299.2l-15-20.2c-1.6-1.5-3.3,1.4-2,3.1l14.5,19.5C285,303.2,286.8,301.3,286.1,299.2L286.1,299.2z"/>
<path class="st23" d="M114.7,261.8l28-35.2c2.1-3.7-1.8-7.8-4.3-4.5l-27,34C109.3,259.3,111.8,263.6,114.7,261.8L114.7,261.8z"/>
<path class="st23" d="M124.8,209.2l17.6-22.3c1.3-2.3-1.2-4.9-2.7-2.8l-17,21.5C121.3,207.5,122.9,210.3,124.8,209.2z"/>
<path class="st23" d="M75.7,169.1c1.9,0,22.4-0.5,24.3-0.6c2-0.6,2-4.3-0.3-4.3l-23.5,0.6C74.2,165.3,73.9,168.1,75.7,169.1z"/>
<path class="st23" d="M89,142.3l48.1-0.2c4.3-1,3.6-8.7-0.7-8.6L90,133.8C85.9,134.8,85.3,140.4,89,142.3z"/>
<path class="st24" d="M241.1,271.9c12.6-3.5,25.2-15.9,30.9-29.6c1.4-3.6-2.5-6.1-4.1-2.7c-5.1,13-17,24.4-28.8,27
	c-1.5,0.7-2.3,2.5-2,3.7C237.4,271.8,239.2,273,241.1,271.9L241.1,271.9z"/>
<path class="st25" d="M71.4,307.7c0.9,1.4,2.6,1.8,3.9,0.8c2.2-4.7,6-11,12.1-13.6c7.4-3.1,12.2,2,19.6,0
	c4.5-1.2,10.7-5.3,16.9-18.9c1.9-3.6-1.8-7.6-4.4-4.8c-3.6,7.9-8.3,14-14.4,16c-7.3,2.4-11.8-2.5-19.1-0.1c-5,1.6-10,6.2-14.6,15.9
	C70.5,304.4,70.5,306.4,71.4,307.7z"/>
<path class="st26" d="M294.6,293.5c1.4,0,2.7-1.3,3-3.2v-59.2c0-0.3,0-1.4-0.7-2.4c-0.4-0.6-0.9-0.9-1.2-1.1h-9.5
	c4.8-6,9.6-12.1,14.4-18.1c4.8,6,9.6,12.1,14.4,18.1h-10.4c-0.2,0.1-0.7,0.3-1.1,0.9c-0.5,0.7-0.5,1.5-0.6,1.7v55.1
	c1.3,4,5.6,3.4,6.3-0.8v-49.3h12.4c1.8-1.2,2.4-4.4,0.7-6.4c-7.3-9.8-14.7-19.5-22-29.3c-7.4,9.6-14.8,19.3-22.2,28.9
	c-2.3,2.2-1.3,5.9,0.5,6.9h13v55.5C292.1,292.4,293.3,293.6,294.6,293.5L294.6,293.5z"/>
<path class="st27" d="M139.7,110.5c0,7.2-4.6,13.1-10.4,13.1c-13.8-0.7-13.8-25.4,0-26.1C135,97.4,139.7,103.3,139.7,110.5z"/>
<path class="st3" d="M134.2,110.5c0,3.4-2.2,6.2-4.9,6.2c-6.5-0.3-6.5-12.1,0-12.4C132,104.2,134.2,107,134.2,110.5z"/>
<path class="st28" d="M331.2,282.2c-0.1,3.7-4.4,3.7-4.5,0C326.8,278.5,331.1,278.5,331.2,282.2z"/>
<path class="st28" d="M321.3,266.2c-0.1,3.7-4.4,3.7-4.5,0C316.9,262.4,321.3,262.4,321.3,266.2z"/>
<path class="st28" d="M283.9,258.8c-0.1,3.7-4.4,3.7-4.5,0C279.5,255.1,283.8,255.1,283.9,258.8z"/>
<path class="st28" d="M229.4,244.3c-0.1,3.7-4.4,3.7-4.5,0C225,240.5,229.3,240.5,229.4,244.3z"/>
<path class="st28" d="M213.1,238.3c-0.1,3.7-4.4,3.7-4.5,0C208.7,234.6,213,234.6,213.1,238.3z"/>
<path class="st28" d="M97.1,271.3c-0.1,4.6-5.4,4.6-5.5,0C91.7,266.7,97,266.7,97.1,271.3z"/>
<path class="st28" d="M151,171.6c-0.1,4.6-5.4,4.6-5.5,0C145.6,167,150.8,167,151,171.6z"/>
<path class="st28" d="M81.7,138c-0.1,5.2-6.2,5.2-6.3,0C75.5,132.7,81.5,132.7,81.7,138z"/>
<path class="st28" d="M83.1,86.2c-0.1,5.2-6.2,5.2-6.3,0C76.9,80.9,82.9,80.9,83.1,86.2z"/>
<path class="st28" d="M96.3,86.2c-0.1,5.2-6.2,5.2-6.3,0C90.2,80.9,96.2,80.9,96.3,86.2z"/>
<path class="st28" d="M142.9,67.4c-0.1,3.8-4.5,3.8-4.5,0C138.4,63.6,142.8,63.6,142.9,67.4z"/>
<path class="st29" d="M142.3,81.5c-0.1,3.8-4.5,3.8-4.5,0C137.9,77.7,142.2,77.7,142.3,81.5z"/>
<path class="st29" d="M110.9,86.2c-0.1,3.8-4.5,3.8-4.5,0C106.4,82.4,110.8,82.4,110.9,86.2z"/>
<path class="st29" d="M129.1,152.5c-0.1,3.8-4.5,3.8-4.5,0C124.7,148.8,129.1,148.8,129.1,152.5z"/>
<path class="st30" d="M128.2,262.4c0.8-1.2,1.7-2.4,2.5-3.5c2.4-2.8,5.8,1,3.8,4.3c-0.7,1.2-1.5,2.4-2.2,3.6
	C129.9,270.2,125.9,266,128.2,262.4z"/>
<path class="st31" d="M101.5,225.7c1.5-0.1,2.9-1.5,3.3-3.5c0.5-4.7,3.6-8.5,6.5-9.6c2.1-0.9,3.2-0.3,4.5-1.8
	c0.8-0.8,1.8-3.2,0.5-5.1c-0.5-0.7-2.6-1.5-1.9-1.2l0,0c-5.1-1.7-8.5-6.1-9.5-12.1c-0.7-4.9-6-5-6.9-0.2c-0.6,3.6-1.9,5.6-2.6,6.6
	c-0.3,0.4-3,3.9-6.3,4.7c-3.8,0.7-4.5,7-0.3,8.2c1.9,0.8,2.3,0.7,3.3,1.2c2.3,1,3.6,3.3,4.1,4.1c1,1.7,1.4,3.3,1.7,4.5
	C98,224,99.7,225.8,101.5,225.7L101.5,225.7z"/>
<path class="st32" d="M101.4,214.5c0.6,0,1.1-0.6,1.2-1.3c0.1-0.6,0.3-1.5,0.8-2.2c0.6-0.9,1.5-1.3,1.6-1.3c0.8-0.3,1.2-0.1,1.7-0.7
	c0.3-0.3,0.7-1.2,0.2-1.9c-0.2-0.2-1-0.6-0.7-0.4l0,0c0,0-0.8-0.3-1.4-0.7c-1.3-0.9-2-2.6-2.1-3.8c-0.3-1.8-2.2-1.8-2.6-0.1
	c-0.2,1.3-0.7,2.1-1,2.4c-0.1,0.2-1.1,1.5-2.3,1.8c-0.1,0-0.4,0.1-0.6,0.3c-0.8,0.7-0.7,2.4,0.5,2.7c0.7,0.3,0.9,0.3,1.2,0.4
	c1.4,0.8,1.8,1.9,2.1,3.2C100.1,213.8,100.8,214.5,101.4,214.5L101.4,214.5z"/>
<path class="st33" d="M310,180.1c3.1,3.9,6.3,7.8,9.4,11.7c0.8,1.1,2.1,0.7,2.7,0c2.9-3.4,5.8-6.9,8.6-10.3c0.8-1.2,0.7-3.6-0.3-4.8
	c-2.9-3.3-5.7-6.6-8.6-9.9c-0.7-0.9-2.1-1.1-2.9-0.1c-2.9,3.5-5.8,7-8.6,10.5C309.4,178.3,309.6,179.3,310,180.1z"/>
<path class="st3" d="M336.9,343.7l-2.7,0c1-5.1-0.1-12.4-2.6-16.7c-8.1-20.3-31.3-20.3-39.4,0h-19.1c-5.3-26.8-26.5-33.4-40.6-27
	c-3.5-17.1-15-29.2-27.9-29.9c-15.6-0.8-25.1,15.6-25.7,16.7c-11.4,1.7-21.2,12.3-25.1,23.3c-19.6-12-39.5,0.7-51.3,19.9
	c-15.3-11-29,2.1-33.5,13.7h-2.6c0.1-1,1.4-15.5,11.9-22.3c7.4-4.8,16.5-3.8,23.4,2.6c8.9-20.7,30.3-31.1,48.6-21.5
	c4.1-12.1,15.2-22.6,27.5-22.3c0.7-1.3,9.9-18.5,25.8-18.4c13.4,0.1,25.8,12.4,29.7,30.4c15.1-5.4,34.8,3.7,40.9,27.6h15.4
	c0.3-0.6,8.4-15.6,22.8-14.6c9.6,0.7,18.1,8.2,22,19.3c1,2.6,2.1,6.4,2.5,11.1C337.2,338.7,337.1,341.5,336.9,343.7L336.9,343.7z"/>
<path class="st34" d="M112.5,343.6c4.2-10.2,12.9-20.4,24.4-22c4.5-0.7,8.4-0.1,12,0.4c4.6,0.7,4.8,1.3,6.7,1.1
	c4.8-0.4,7.9-4.3,10.6-6.6c5.7-4.8,14.2-11.3,25.9-18.7c10.1-6.5,20.6-2.8,27.2,3.4c2.8,2.4,5.1,4.4,7.2,8c1.1,1.9,1.8,4.8,3.6,5.2
	c0.9,0.2,1.3-0.4,2.7-0.8c1.7-0.5,2.9-0.3,4.8,0c2.8,0.4,9,1.3,13.9,4.3c11.6,7.3,15.8,23.1,16.5,25.8L112.5,343.6L112.5,343.6z"/>
<path class="st35" d="M124.4,343.7c6.1-6.3,11.3-7.9,15-8.2c5.9-0.4,9,2.5,15.5,1.7c5.3-0.7,9.5-3.4,12.2-5.7
	c3-3.2,7.5-7.7,13.4-12.2c9-6.8,15.3-11.6,22.5-11.6c14,0.1,23.8,18.8,25.6,22.3c9.4-4.6,19.9,2.2,22.9,13.6L124.4,343.7
	L124.4,343.7z"/>
<path class="st36" d="M79.4,343.6l20.7,0C94.7,335,84.7,335.3,79.4,343.6z"/>
<path class="st36" d="M294.3,343.6c10.1,0,20.1,0,30.2,0C319.9,324.4,298.9,324.4,294.3,343.6z"/>
<path class="st37" d="M334.2,343.6c-3.2,0-6.5,0-9.7,0c-4.6-19.3-25.4-19.2-30.2,0l-26.3,0c-4.7-22.6-22.8-33.5-37.9-29.3
	c-12-19-22.4-20-25.8-20c-12.3,0-27.8,13.9-35.9,21.1c-0.1,0.1-2.3,2-5.4,4.1c-5.5,3.6-6.9,4.3-13.5,2.8c0,0-4.9-0.9-8.8-1.3
	c-13.2-0.9-24.5,13.4-28.1,22.5l-12.4,0c-5.5-8.7-15.5-8.3-20.7,0H69c6.4-17.5,22.4-21.5,33.5-13.7c10-20.4,32.3-30.5,51.3-19.9
	c4.1-11.7,14.3-21.7,25.1-23.3c0.6-1.2,10.1-17.6,25.7-16.7c12.9,0.7,24.4,12.8,27.9,29.9c16.5-7.9,36.1,3.6,40.6,27h19.1
	c8.1-20.2,31-20.4,39.2-0.3C334,330.9,335.3,338.4,334.2,343.6L334.2,343.6z"/>
<path class="st27" d="M55.3,351.8h293.6c4.3-1.1,3.5-8.4-0.9-8.1H55.7c-2.1-0.3-3.9,1.7-3.9,4.1C51.8,349.9,53.3,351.8,55.3,351.8
	L55.3,351.8z"/>
<path class="st3" d="M315.4,179.2c1.5,1.9,3,3.7,4.5,5.6c0.1,0.1,0.2,0.3,0.5,0.3c0.4,0.1,0.7-0.3,0.8-0.3c1.4-1.6,2.8-3.3,4.1-4.9
	c0.1-0.1,0.3-0.6,0.3-1.3c-0.1-0.6-0.3-0.9-0.4-1c-1.4-1.6-2.7-3.2-4.1-4.8c-0.1-0.1-0.3-0.4-0.8-0.4c-0.3,0-0.6,0.3-0.6,0.3
	c-1.4,1.7-2.8,3.4-4.2,5.1C315.2,178.3,315.3,178.8,315.4,179.2z"/>
<path class="st27" d="M343.4,343.7c2.4-40.9-35.2-61.9-57.1-31.4h-8.8c-6.2-22.4-25.2-33.1-40.8-28.8c-14-39.3-47.9-36.4-62.5-10.2
	c-11.1,0.9-21.5,10.4-26.1,21.2c-17.7-9.6-38.5,0.5-47,20.8c-16.7-9.9-38.4,0.3-41.3,28.4h6.7c1.4-18.9,18.1-33.6,35.2-19.7
	c9.7-22.2,31.7-30.5,48.6-21.5c4.2-12.4,15.5-22.6,27.5-22.3c0.8-1.6,9.6-17.9,24.9-18.4c13.6-0.4,26.4,11.9,30.7,30.4
	c17.2-6.4,35.8,6.7,40.9,27.6h15.4c10.2-18.8,31.5-19.7,42.3-0.4c3.9,6.5,5.9,16.6,4.9,24.3L343.4,343.7L343.4,343.7z"/>
</svg>
