<?xml version="1.0" encoding="utf-8"?>
<!-- Generator: Adobe Illustrator 27.3.1, SVG Export Plug-In . SVG Version: 6.00 Build 0)  -->
<svg version="1.1" id="Layer_2_00000101824207370544699890000014687498337284420773_"
	 xmlns="http://www.w3.org/2000/svg" xmlns:xlink="http://www.w3.org/1999/xlink" x="0px" y="0px" viewBox="0 0 403.6 403.6"
	 style="enable-background:new 0 0 403.6 403.6;" xml:space="preserve">
<style type="text/css">
	.st0{fill:#66B8EA;stroke:#66B8EA;stroke-miterlimit:10;}
	.st1{fill:#2C3E4A;stroke:#2C3E4A;stroke-miterlimit:10;}
	.st2{fill:#C3CF91;}
	.st3{fill:#28344E;}
	.st4{fill:#BFD290;}
	.st5{fill:#A7B991;stroke:#A7B991;stroke-miterlimit:10;}
	.st6{fill:#304258;stroke:#304258;stroke-miterlimit:10;}
	.st7{fill:#FFFFFF;stroke:#FFFFFF;stroke-miterlimit:10;}
	.st8{fill:#C8E3EE;stroke:#C8E3EE;stroke-miterlimit:10;}
	.st9{fill:#2A3852;}
	.st10{fill:#304059;}
	.st11{fill:#FFFFFF;}
	.st12{fill:#2A3C54;stroke:#2A3C54;stroke-miterlimit:10;}
	.st13{fill:#F7CB80;}
	.st14{fill:#E1B167;}
	.st15{fill:#24385B;stroke:#24385B;stroke-miterlimit:10;}
	.st16{fill:#C4E4F1;stroke:#C4E4F1;stroke-miterlimit:10;}
</style>
<path class="st0" d="M351.8,197.9c0,80.5-67.3,145.8-150.4,145.8C1.9,336,2,59.7,201.4,52C284.5,52,351.8,117.3,351.8,197.9z"/>
<path class="st1" d="M283.9,231.8v-47.1c-0.1-3-2.6-6.4-5.1-7.5H125.5c-0.4,0-3.1,0.1-5,2.2c-1.6,1.8-1.7,3.8-1.7,4.4v47.5
	l26.7,21.5l22.3,11.3l6.5,5.5h55l6.5-5.5l22.3-11.3L283.9,231.8L283.9,231.8z"/>
<path class="st2" d="M182.3,244.3h-31.4c-0.3-8.4-7.8-14.9-15.9-14.9v-20.6c9.1-0.2,15.7-7.7,15.5-15.6h31.8v8.3
	c-13.7,10.8-11.5,28.9,0,38V244.3L182.3,244.3z"/>
<path class="st2" d="M220.1,244.6h31.4c0.3-8.4,7.8-14.9,15.9-14.9v-20.6c-9.1-0.2-15.7-7.7-15.5-15.6h-31.8v8.3
	c13.7,10.8,11.5,28.9,0,38V244.6z"/>
<path class="st3" d="M166.8,219c0,5.4-4.5,9.7-10,9.7c-13.3-0.5-13.3-19,0-19.5C162.3,209.3,166.8,213.6,166.8,219L166.8,219z"/>
<path class="st3" d="M255.5,219c0,5.4-4.5,9.7-10,9.7c-13.3-0.5-13.3-19,0-19.5C251,209.3,255.5,213.6,255.5,219L255.5,219z"/>
<path class="st4" d="M161,219c-0.2,5.5-8.4,5.5-8.6,0C152.6,213.5,160.8,213.5,161,219z"/>
<path class="st4" d="M249.7,219c-0.2,5.5-8.4,5.5-8.6,0C241.4,213.5,249.6,213.5,249.7,219z"/>
<polygon class="st5" points="168.8,264.8 182.3,264.8 182.3,259.9 159.1,259.9 "/>
<path class="st5" d="M215.5,264.8v-4.9h-29v4.9H215.5z"/>
<polygon class="st5" points="220.1,259.9 220.1,264.8 234.7,264.8 240.8,261.6 240.8,259.6 "/>
<path class="st5" d="M182.3,248.5v6.2l-32.3,0.4c-1.6-0.9-3.2-1.8-4.8-2.8c-1.3-1-2.6-2.1-3.9-3.1c0.2-0.5,1.6-4.5-0.7-8.1
	c-2.2-3.4-7-5-11.6-3.5l-5.8-4.5l-0.6-48.3h59.7v4.2h-35.6c0.7,9-7.2,16-15.9,15.1v29.1c9.3-0.8,15.9,6.8,15.2,14.7L182.3,248.5
	L182.3,248.5z"/>
<path class="st5" d="M220.1,248.5v6.2l32.3,0.4c1.6-0.9,3.2-1.8,4.8-2.8c1.3-1,2.6-2.1,3.9-3.1c-0.2-0.5-1.6-4.5,0.7-8.1
	c2.2-3.4,7-5,11.6-3.5l5.8-4.5l0.6-48.3h-59.7v4.2h35.6c-0.7,9,7.2,16,15.9,15.1v29.1c-9.3-0.8-15.9,6.8-15.2,14.7L220.1,248.5
	L220.1,248.5z"/>
<path class="st5" d="M132,241.7c2.2-0.9,5.7,0.7,5.1,4.1L132,241.7z"/>
<path class="st5" d="M270.1,241.7c-2.2-0.9-5.7,0.7-5.1,4.1L270.1,241.7z"/>
<path class="st6" d="M132.1,320.3c0.4-1.5,0-5.2-0.9-6.7c-5.4-4.6-24.3-19.2-27-22.3c-10.7-10.2-21.4-30.3-27.5-44.5
	c-8-19.2-7.5-16.8-9.2-29.4c-0.1-9.9-2.7-22.2-4.7-31.9c1.8-11.3,16.8-13.5,22.1-3.2c3.6,9.9,10.8,30,14.3,39.9l6.5,12.9
	c3-4,8.7-5.4,12.6-4.4c9,7.1,18.3,14.6,27.2,21.9c7.1,3.9,15,7.9,22.3,11.3c3.5,2.6,7.9,6.4,12.1,11.7c3.7,4.7,6.1,9.1,7.6,12.7
	c1,2.5,2,5.7,2.7,9.5c0.7,4.3,0.7,8.1,0.4,11c-0.2,3.5-0.9,8.1-1.9,11.5L132.1,320.3L132.1,320.3z"/>
<path class="st7" d="M137.2,320.3c1.5-4.2-0.5-8.5-3.6-12.2c-8.5-6.3-18-13.9-26-21c-6.5-6.9-14.3-18.2-18.3-26.4
	c-5.2-8.5-10.3-19.8-13-28.4l-3.7-12.7c-1-6-1.7-13.3-1.9-19.4c-1.3-4.4-2.6-10.2-3.1-14.8c1.9-6.4,10.3-6.3,12.7,0
	c2.8,5,5.8,13.5,6.7,19.2c2.5,6.9,5.1,13.9,7.7,20.8c2.6,4.5,5.2,9.1,7.9,13.6c-0.3,1.5-0.5,3.8,0,6.4c0.4,2.1,1,3.8,1.6,5
	c9.9,10.9,20.9,22.4,31.3,32.5c2.6,3,7-0.8,4.2-3.6l-30.9-32.4c-3.2-6.5,3.9-13.2,10.5-10l17.4,14.7l8.9,7.1
	c17.6,6.8,31,15.9,37.5,33c0.8,2.4,1.5,5.2,1.9,8.5c0.6,4.5,0.4,8.5,0,11.5c-0.1,2.3-1.1,6.4-2,8.5"/>
<polygon class="st6" points="121.2,241.2 125.4,244.9 117.3,252.7 113.3,248.9 "/>
<path class="st8" d="M142.7,320.3v-4.9c-1.3-7.7-7.4-14.4-13.5-17.1l0,0c-18.4-10.8-22.3-17.5-31.5-32.1c-4.1-6.7-7.2-12.5-9.4-16.6
	c-3.8-6.7-7.9-17.1-9.7-24.5c-2.1-10-4.2-20.2-6.2-30.2c-0.2-1.4-0.4-2.7-0.6-4.1c-0.2-1.9-2.8-2.3-3.6-0.5l1.4,9.4l1.3,11.9
	c0.5,8.1,3.9,20.8,7.3,28.2c8.5,23.3,24.6,48.5,46.9,62.3l8.8,7.3c2.7,2.6,4,7.6,3.1,11.1L142.7,320.3L142.7,320.3z"/>
<path class="st6" d="M271.4,320.3c-0.4-1.5,0-5.2,0.9-6.7c5.4-4.6,24.3-19.2,27-22.3c10.7-10.2,21.4-30.3,27.5-44.5
	c8-19.2,7.5-16.8,9.2-29.4c0.1-9.9,2.7-22.2,4.7-31.9c-1.8-11.3-16.8-13.5-22.1-3.2c-3.6,9.9-10.8,30-14.3,39.9l-6.5,12.9
	c-3-4-8.7-5.4-12.6-4.4c-9,7.1-18.3,14.6-27.2,21.9c-7.1,3.9-15,7.9-22.3,11.3c-3.5,2.6-7.9,6.4-12.1,11.7
	c-3.7,4.7-6.1,9.1-7.6,12.7c-1,2.5-2,5.7-2.7,9.5c-0.7,4.3-0.7,8.1-0.4,11c0.2,3.5,0.9,8.1,1.9,11.5L271.4,320.3L271.4,320.3z"/>
<path class="st7" d="M266.3,320.3c-1.5-4.2,0.5-8.5,3.6-12.2c8.5-6.3,18-13.9,26-21c6.5-6.9,14.3-18.2,18.3-26.4
	c5.2-8.5,10.3-19.8,13-28.4l3.7-12.7c1-6,1.7-13.3,1.9-19.4c1.3-4.4,2.6-10.2,3.1-14.8c-1.9-6.4-10.3-6.3-12.7,0
	c-2.8,5-5.8,13.5-6.7,19.2c-2.5,6.9-5.1,13.9-7.7,20.8c-2.6,4.5-5.2,9.1-7.9,13.6c0.3,1.5,0.5,3.8,0,6.4c-0.4,2.1-1,3.8-1.6,5
	c-9.9,10.9-20.9,22.4-31.3,32.5c-2.6,3-7-0.8-4.2-3.6l30.9-32.4c3.2-6.5-3.9-13.2-10.5-10l-17.4,14.7l-8.9,7.1
	c-17.6,6.8-31,15.9-37.5,33c-0.8,2.4-1.5,5.2-1.9,8.5c-0.6,4.5-0.4,8.5,0,11.5c0.1,2.3,1.1,6.4,2,8.5"/>
<polygon class="st6" points="282.3,241.2 278.1,244.9 286.2,252.7 290.2,248.9 "/>
<path class="st8" d="M260.8,320.3v-4.9c1.3-7.7,7.4-14.4,13.5-17.1l0,0c18.4-10.8,22.3-17.5,31.5-32.1c4.1-6.7,7.2-12.5,9.4-16.6
	c3.8-6.7,7.9-17.1,9.7-24.5c2.1-10,4.2-20.2,6.2-30.2c0.2-1.4,0.4-2.7,0.6-4.1c0.2-1.9,2.8-2.3,3.6-0.5l-1.4,9.4l-1.3,11.9
	c-0.5,8.1-3.9,20.8-7.3,28.2c-8.5,23.3-24.6,48.5-46.9,62.3l-8.8,7.3c-2.7,2.6-4,7.6-3.1,11.1L260.8,320.3L260.8,320.3z"/>
<path class="st9" d="M127.8,320.3h63.5c0.3,0.1,0.8,0.3,1.2,0.7c0.7,0.7,0.8,1.4,0.9,1.7V350c-0.1,0.2-0.3,0.8-0.8,1.3
	c-0.6,0.5-1.2,0.7-1.4,0.7h-63.4c-0.3-0.1-1-0.3-1.6-1c-0.4-0.5-0.6-1-0.7-1.3v-27.4C125.6,321.2,126.8,320.2,127.8,320.3
	L127.8,320.3z"/>
<rect x="130.4" y="325.6" class="st10" width="58.3" height="22.9"/>
<rect x="130.4" y="325.6" class="st11" width="58.3" height="2.3"/>
<path class="st11" d="M184.8,338.1c-0.1,4.2-6.4,4.2-6.6,0C178.3,333.9,184.6,333.9,184.8,338.1z"/>
<path class="st9" d="M211.1,320.3h63.5c0.3,0.1,0.8,0.3,1.2,0.7c0.7,0.7,0.8,1.4,0.9,1.7V350c-0.1,0.2-0.3,0.8-0.8,1.3
	c-0.6,0.5-1.2,0.7-1.4,0.7h-63.4c-0.3-0.1-1-0.3-1.6-1c-0.4-0.5-0.6-1-0.7-1.3v-27.4C208.8,321.2,210.1,320.2,211.1,320.3
	L211.1,320.3z"/>
<rect x="213.7" y="325.6" class="st10" width="58.3" height="22.9"/>
<rect x="213.7" y="325.6" class="st11" width="58.3" height="2.3"/>
<path class="st11" d="M268,338.1c-0.1,4.2-6.4,4.2-6.6,0C261.6,333.9,267.9,333.9,268,338.1z"/>
<path class="st7" d="M89,140.4c-0.2,5.1-7.9,5.1-8,0C81.1,135.2,88.8,135.2,89,140.4z"/>
<path class="st7" d="M106.2,130.8c-0.1,3.6-5.5,3.6-5.7,0C100.6,127.2,106.1,127.2,106.2,130.8z"/>
<path class="st7" d="M93.4,159.7c0,1.9-2.9,1.9-3,0C90.5,157.8,93.4,157.8,93.4,159.7z"/>
<path class="st7" d="M149.7,161.1c0,1.9-2.9,1.9-3,0C146.7,159.2,149.6,159.2,149.7,161.1z"/>
<path class="st7" d="M263.8,138.9c0,1.9-2.9,1.9-3,0C260.8,137.1,263.7,137.1,263.8,138.9z"/>
<path class="st7" d="M293.1,153.9c0,1.9-2.9,1.9-3,0C290.2,152,293.1,152,293.1,153.9z"/>
<path class="st7" d="M307,126c-0.1,3-4.6,3-4.6,0C302.5,123.1,306.9,123.1,307,126z"/>
<path class="st12" d="M249.7,118.5c0,26.1-21.8,47.3-48.8,47.3c-64.7-2.5-64.7-92.1,0-94.6C227.9,71.2,249.7,92.3,249.7,118.5z"/>
<path class="st13" d="M246.8,118c0,24.3-20.3,44-45.4,44c-60.2-2.3-60.1-85.6,0-88C226.5,74,246.8,93.7,246.8,118L246.8,118z"/>
<path class="st7" d="M156.9,112.1c4.8-19.2,22.8-33.5,44.3-34.3c18.4,0.1,27.1,8,34.6,16.6c0,0,3.1,3.7,5.1,7.4
	c5.3,9.6,3.6,21.9,3.6,22l0,0c0,0-1.1,5.3-2.8,13.7c2.7-5,2.8-6.2,3.8-9.8l0,0c1.9-7.1,1.3-17-0.6-24c-2.6-8-7.9-13.9-13.3-18.2
	c-9.2-7.1-19.1-12.6-36.4-10.6c-4.5,0.6-7.8,1.8-11.3,3c-0.4,0.1-2.9,1-4.8,2.2c-1,0.5-3,2.1-4.1,2.8c-4.7,2.9-10.2,9-12.9,14
	C159.2,101.7,157.4,105.5,156.9,112.1L156.9,112.1z"/>
<path class="st7" d="M167.9,141.3c1,2.3,2.5,3.9,4.1,5.3c6.4,5.6,13,8.2,13,8.2c8.1,3.2,15,3.1,18.1,3.1c2.8,0,6.5-0.2,10.7-1.5
	c11-3.4,18.4-9.7,21.2-19.7c-2.6,4.2-9.2,10.6-13.7,13.1l-6.4,3.3c-2.6,1.1-4.8,1.4-7,1.7c-0.8,0.1-3.6,0.5-7.4,0.5
	c-2,0-4.1-0.1-6.9-0.6c-11.9-3.2-19.5-7.7-26.9-18.8C166.8,137.2,166.9,139.2,167.9,141.3L167.9,141.3z"/>
<path class="st14" d="M240.2,117.7c0,20.8-17.4,37.7-38.9,37.7c-51.6-2-51.6-73.5,0-75.5C222.7,79.9,240.2,96.8,240.2,117.7
	L240.2,117.7z"/>
<path class="st13" d="M235.7,118c0,18.4-15.4,33.4-34.4,33.4c-45.7-1.8-45.7-65,0-66.8C220.3,84.6,235.7,99.5,235.7,118L235.7,118z"
	/>
<path class="st15" d="M198.7,92.3c0.7-2.3,4.1-2.3,4.8,0v5.8c3.5-0.1,8.4,2,10.4,4.3c1.3,2.4-1.4,5.2-4,4.1
	c-3.1-3.3-8.4-3.6-11.2-2.6c-0.8,0.2-2.1,0.6-3.4,1.6c-1,0.8-1.7,1.6-2.1,2.3c-1.1,2.5,0.5,5.4,2.9,6.2c2.8,1.1,7.5,2,10.4,2
	c3.2,0.5,7,3.5,8,6.8c2.1,6.8-2.7,16-11.2,15.4c0.1,1.7,0.1,3.5,0.2,5.2c-0.7,2.6-4.1,2.5-4.9,0v-5.3c-4.6,0.4-9.8-2.4-12.3-5.4
	c-2-2.8,1.1-6.2,4.2-4.7l4.5,3.7l0,0c1,0.5,2.7,1,4.8,1.2c2.4,0.2,4.4-0.3,5.6-0.7c2.7-0.6,5-3.7,4.2-6.8c-1.8-2.8-4-4.2-7-4.3
	c-5.2,0.2-12.1-1.7-14.4-7c-0.9-2.3-0.9-5-0.7-7.1c0.5-1.3,1.3-3,2.9-4.8c1.2-1.4,2.4-2.3,3.3-3c1-0.8,3.9-1.3,5-1.1
	C198.6,96.2,198.6,94.2,198.7,92.3L198.7,92.3z"/>
<path class="st7" d="M123.4,148.3v-5.5c-0.2-2.8,3.5-3.4,4.1-0.6v6.1h6.1c2.6,0.2,2.7,3.8,0.1,4.2h-6.4v6.3
	c-0.4,2.2-3.5,2.1-3.9-0.1V152h-5.8c-2.3,0.2-3.1-2.8-1.1-3.8L123.4,148.3L123.4,148.3z"/>
<path class="st7" d="M282.1,113.8v-5.5c-0.2-2.8,3.5-3.4,4.1-0.6v6.1h6.1c2.6,0.2,2.7,3.8,0.1,4.2H286v6.3c-0.4,2.2-3.5,2.1-3.9-0.1
	v-6.8h-5.8c-2.3,0.2-3.1-2.8-1.1-3.8L282.1,113.8L282.1,113.8z"/>
<path class="st7" d="M315.1,151.8v-5.5c-0.2-2.8,3.5-3.4,4.1-0.6v6.1h6.1c2.6,0.2,2.7,3.8,0.1,4.2h-6.4v6.3
	c-0.4,2.2-3.5,2.1-3.9-0.1v-6.8h-5.8c-2.3,0.2-3.1-2.8-1.1-3.8L315.1,151.8L315.1,151.8z"/>
<path class="st7" d="M268.7,152v-4.1c-0.1-2.1,2.6-2.5,3.1-0.5v4.6h4.6c1.9,0.2,2,2.9,0.1,3.1h-4.8v4.8c-0.3,1.6-2.7,1.6-2.9-0.1
	v-5.1h-4.3c-1.7,0.1-2.4-2.1-0.8-2.8L268.7,152L268.7,152z"/>
<path class="st7" d="M199.7,284.3v-3.1c-0.1-1.6,2.4-1.9,2.7-0.4v3.4h4.1c1.7,0.1,1.8,2.1,0.1,2.3h-4.3v3.5
	c-0.3,1.2-2.4,1.2-2.6-0.1v-3.8h-3.8c-1.4,0.1-2.1-1.5-0.7-2.1L199.7,284.3L199.7,284.3z"/>
<path class="st7" d="M124.6,114.8v-4c-0.1-2,2.6-2.5,3-0.5v4.4h4.4c1.9,0.2,1.9,2.8,0.1,3h-4.7v4.6c-0.3,1.6-2.6,1.5-2.8-0.1v-4.9
	h-4.2c-1.6,0.1-2.3-2-0.8-2.7L124.6,114.8L124.6,114.8z"/>
<path class="st7" d="M182.3,184.9v-2.7h-56.8c-1.4,0-2.8,1.3-2.9,2.7H182.3z"/>
<path class="st7" d="M220.1,184.9v-2.7h56.8c1.4,0,2.8,1.3,2.9,2.7H220.1L220.1,184.9z"/>
<path class="st2" d="M177.8,220.3c0,6.8,3.4,11.5,4.5,13v-26C181.1,208.8,177.8,213.5,177.8,220.3z"/>
<path class="st2" d="M224.6,220.3c0,6.8-3.4,11.5-4.5,13v-26C221.2,208.8,224.6,213.5,224.6,220.3z"/>
<rect x="186.5" y="182.2" class="st7" width="29" height="72.9"/>
<path class="st16" d="M186.5,241.5c8.5,3.7,20.5,3.7,29,0v13.8l-29-0.2V241.5z"/>
</svg>
