<?xml version="1.0" encoding="utf-8"?>
<!-- Generator: Adobe Illustrator 27.3.1, SVG Export Plug-In . SVG Version: 6.00 Build 0)  -->
<svg version="1.1" id="Layer_1" xmlns="http://www.w3.org/2000/svg" xmlns:xlink="http://www.w3.org/1999/xlink" x="0px" y="0px"
	 viewBox="0 0 403.6 403.6" style="enable-background:new 0 0 403.6 403.6;" xml:space="preserve">
<style type="text/css">
	.st0{fill:#AF622C;stroke:#AF622C;stroke-miterlimit:10;}
	.st1{fill:#D2D0D1;stroke:#D2D0D1;stroke-miterlimit:10;}
	.st2{fill:#FFFFFF;stroke:#FFFFFF;stroke-miterlimit:10;}
	.st3{fill:#AFB6C0;stroke:#AFB6C0;stroke-miterlimit:10;}
	.st4{fill:#FFFFFF;stroke:#AFB6C0;stroke-miterlimit:10;}
	.st5{stroke:#000000;stroke-miterlimit:10;}
	.st6{fill:#DFDCD5;stroke:#DFDCD5;stroke-miterlimit:10;}
	.st7{fill:#EEBE04;stroke:#EEBE04;stroke-miterlimit:10;}
	.st8{fill:#DFDCD5;stroke:#DFDCD5;stroke-miterlimit:9.9999;}
	.st9{fill:#B94F5B;stroke:#B94F5B;stroke-miterlimit:9.9999;}
</style>
<path class="st0" d="M257,55.3c19.2,0,39.5,0,58.8,0c6.2,1.5,10.8,4.4,11.8,10.1v286c-1.2,6.2-5.5,11.6-11.2,12.9
	c-76,0-152,0-228-0.2c-5.8-1-10.5-6.4-10.8-11.9V66.5c1-4.9,5.2-9.9,10-11.1C144,55.6,200.5,55.3,257,55.3L257,55.3z"/>
<path class="st1" d="M94,328.7v14.1c0.2,2.7,2.7,4.7,5.2,4.7h205c0.8,0,2.5-0.2,4.2-1.2s2.5-2.2,3-3v-14.6H94L94,328.7z"/>
<path class="st2" d="M94.2,76.1v252.3c0.5,3,3.5,4.4,5.5,4.4h205c2.2,0.2,6-1.2,6.8-4.4V78.8c0.3-3.5-2.5-6.7-5.8-7.4H98.2
	C95.7,71.7,94,74.1,94.2,76.1z"/>
<path class="st3" d="M148,93.2h109V55.3c-10.5,0-20.8-0.2-31.2-0.2c-8.2-21.3-38.8-21-46.7,0.2c-10.2,0-20.8,0-31,0
	C148,55.3,148,93.2,148,93.2z"/>
<path class="st4" d="M210.5,65c0,4.4-3.8,8.2-8.3,8.2c-10.8-0.5-10.8-15.8,0-16.1C207,57.1,210.5,60.5,210.5,65z"/>
<polygon class="st5" points="135.9,273.6 144.8,282.9 132.5,285.9 "/>
<polygon class="st6" points="139.5,260.5 159,280.2 145,282.8 135.8,273.8 "/>
<polygon class="st7" points="160,279.7 247,193.5 226.8,173.5 140,259.5 "/>
<polygon class="st8" points="227,173.4 244.9,155.7 265,175.6 247.2,193.3 "/>
<polygon class="st9" points="245,155.8 254.1,146.9 274.2,166.8 265.2,175.7 "/>
</svg>
