<?xml version="1.0" encoding="utf-8"?>
<!-- Generator: Adobe Illustrator 27.3.1, SVG Export Plug-In . SVG Version: 6.00 Build 0)  -->
<svg version="1.1" id="Layer_1" xmlns="http://www.w3.org/2000/svg" xmlns:xlink="http://www.w3.org/1999/xlink" x="0px" y="0px"
	 viewBox="0 0 403.6 403.6" style="enable-background:new 0 0 403.6 403.6;" xml:space="preserve">
<style type="text/css">
	.st0{fill:#89D0D6;}
	.st1{fill:#FFFFFF;}
	.st2{fill:#52A7CE;}
	.st3{fill:#354350;}
	.st4{fill:#CEAB8D;}
	.st5{fill:#FFFFFF;stroke:#FFFFFF;stroke-miterlimit:10;}
	.st6{fill:#B99074;}
	.st7{fill:none;}
	.st8{fill:#CFAB91;}
</style>
<circle class="st0" cx="201.8" cy="201.8" r="150"/>
<path class="st1" d="M152.1,208.4c-12.1-2.4-16.4-13.9-16.4-20.7c-0.7-9.4,6.4-15.9,11.7-17.9"/>
<path class="st1" d="M256.1,169.7c15.1,5.5,14.5,22.7,7,32.5l0,0c-1.3,1.4-3.2,3.3-5.9,4.9c-2.2,1.4-4.4,2.1-6,2.7"/>
<path class="st2" d="M101.4,313.3c56.7,51.1,143.2,51.6,201.4-0.3c-15.5-23.9-36.3-37.3-61.1-42.8l-6.1-1.1
	c-4.7,9.3-9.4,18.7-14.2,28.1l0,0c-3.9,7.3-7.9,14.5-11.7,21.8l0,0c-1.5,2.1-2.9,4.3-4.4,6.4c-1.4,1.5-2.2,1.5-3.5,1.9
	c-0.5,0-1.5-0.1-2.7-0.7c-0.9-0.5-1.5-1.1-1.8-1.5c-9.7-18.7-19.4-37.3-29.1-56C142.7,271.7,115.7,287.6,101.4,313.3L101.4,313.3z"
	/>
<path class="st3" d="M236.3,259c31.2,4.7,59.9,26.6,73.3,47.2c-2.2,2.3-4.5,4.6-6.8,6.9c-12.1-20.3-38.5-40.4-67.2-43.9
	c-1.6,3.3-25.3,51.1-30.1,56c-2.4,2.7-5.7,3.1-8.3,0l-29.1-56c-29.1,2.7-55.4,23-66.8,44.1c-2.5-2.4-4.9-4.8-7.4-7.1
	c13.1-20,41.5-42.1,72.9-46.7v-25.8c-3.5-4.9-17.3-24.8-19-38.4c-0.3-2.7-0.6-6-0.6-6c-0.6-8.1-0.3-14.8,0-19.5
	c-1.5,0.6-3.7,1.9-5,2.9c-5.3-8.9-7.6-22.8-5.1-33.4c-2.8-0.5-5.1-2.6-5.6-5.1c-0.5-2.1,0.5-4.3,1.7-6c5.4-8.1,20.3-19.9,23.3-22.3
	c0,0-2.3,0.5-4.6,1.1s-2.9,0.7-3.6,0.4c-1.4-0.5-2.2-2.3-2.3-3.3c-0.3-4.6,13.2-9.6,20.8-11.7c5.6-1.5,14.2-3.3,25.4-2.9l0,0
	c-1.9-0.9-4.9-2.2-9-4.1c-2.1-0.9-3.4-1.6-3.9-3.1c-0.6-1.8,0.9-3.8,1.1-4.1c3.8-5.1,23.3,1.6,26.9,2.8c0.2,0.1,8.9,3.1,15.7,8.1
	c2.1,1.5,5.1,4,8.1,7.9c2.1,2.6,4.2,5.1,6.3,7.8c0.4-5.1,0.8-10.2,1.1-15.3c1.6-4.8,8.6-4.5,9.8,0.4c0.3,5.7-0.1,13.5-1.3,19.9
	c7.8,3.1,14.6,10.6,17,18c6.4,16,4.3,30.8-2,45.8c-1.5-1.3-4.4-3-6.2-3.6c4.4,24.3-6.2,47.1-19.7,64.5L236.3,259L236.3,259z"/>
<path class="st4" d="M175,250.9V266c3.3,6.2,6.5,12.3,9.8,18.4c10.5,4.5,24.4,4.1,33.9-0.1c3-5.9,6-11.8,9-17.7v-15.1
	C211.8,263.3,189.2,262.1,175,250.9L175,250.9z"/>
<path class="st5" d="M185.4,285l16.5,29.9L218,285C208.4,289.1,194.9,289.1,185.4,285z"/>
<path class="st6" d="M175,250.9c14.7,11.5,37.5,11.9,52.7,0.6v-6.7c-14.9,13.6-38.5,13.1-52.7,0V250.9z"/>
<path class="st7" d="M201.8,314.9l25.9-48.3v-21.7c-2.1,2-11.5,9.9-25.9,10c-15.1,0.2-24.9-8.2-26.8-10V266
	c3.6,6.6,7.2,13.2,10.9,19.7C191.2,295.5,196.5,305.2,201.8,314.9L201.8,314.9z"/>
<path class="st8" d="M228.9,134.1c2.1,11.7,9.9,26.2,18.3,34.4c1.3,14.5-0.7,33.9-9.2,47.6c-6,10.5-14.1,18.6-18.9,23.1
	c-1.5,1.4-3.7,3-6.6,4.5c-3.9,1.9-7.5,2.4-9.9,2.5c-16.4-0.9-29-14.8-35.6-29.2l0,0c-13.3-23.8-12.2-37.4-7.6-63c0,0,5.6,1.7,9,2.5
	c11.6,2.7,25.5,0.7,33.3-2.2C212.1,151.1,223.3,142.7,228.9,134.1L228.9,134.1z"/>
<path class="st7" d="M201.3,287.7l16.5-2.7L201.3,287.7z"/>
</svg>
