<?xml version="1.0" encoding="utf-8"?>
<!-- Generator: Adobe Illustrator 27.3.1, SVG Export Plug-In . SVG Version: 6.00 Build 0)  -->
<svg version="1.1" id="Layer_1" xmlns="http://www.w3.org/2000/svg" xmlns:xlink="http://www.w3.org/1999/xlink" x="0px" y="0px"
	 viewBox="0 0 403.6 403.6" style="enable-background:new 0 0 403.6 403.6;" xml:space="preserve">
<style type="text/css">
	.st0{fill:#AF622C;stroke:#AF622C;stroke-miterlimit:10;}
	.st1{fill:#D2D0D1;stroke:#D2D0D1;stroke-miterlimit:10;}
	.st2{fill:#FFFFFF;stroke:#FFFFFF;stroke-miterlimit:10;}
	.st3{fill:#AFB6C0;stroke:#AFB6C0;stroke-miterlimit:10;}
	.st4{fill:#FFFFFF;stroke:#AFB6C0;stroke-miterlimit:10;}
	.st5{stroke:#000000;stroke-miterlimit:10;}
	.st6{fill:#DFDCD5;stroke:#DFDCD5;stroke-miterlimit:10;}
	.st7{fill:#EEBE04;stroke:#EEBE04;stroke-miterlimit:10;}
	.st8{fill:#DFDCD5;stroke:#DFDCD5;stroke-miterlimit:9.9999;}
	.st9{fill:#B94F5B;stroke:#B94F5B;stroke-miterlimit:9.9999;}
</style>
<path class="st0" d="M270,19.9c23.7,0,48.8,0,72.7,0c7.7,1.9,13.3,5.5,14.6,12.5v355.1c-1.5,7.7-6.8,14.4-13.8,16
	c-93.9,0-187.8,0-281.7-0.2c-7.2-1.2-13-7.9-13.3-14.8V33.8c1.2-6.1,6.4-12.3,12.4-13.8C130.3,20.3,200.1,19.9,270,19.9L270,19.9z"
	/>
<path class="st1" d="M68.6,359.4v17.5c0.2,3.4,3.3,5.8,6.4,5.8h253.3c1,0,3.1-0.2,5.2-1.5s3.1-2.7,3.7-3.7v-18.1H68.6L68.6,359.4z"
	/>
<path class="st2" d="M68.8,45.7V359c0.6,3.7,4.3,5.5,6.8,5.5h253.3c2.7,0.2,7.4-1.5,8.4-5.5V49.1c0.4-4.3-3.1-8.3-7.2-9.2H73.7
	C70.7,40.3,68.6,43.3,68.8,45.7z"/>
<path class="st3" d="M135.3,67H270V20.3c-13,0-25.7-0.2-38.6-0.2c-10.1-26.2-47.9-25.8-57.7,0.2c-12.6,0-25.7,0-38.3,0
	C135.3,20.3,135.3,67,135.3,67z"/>
<path class="st4" d="M212.5,32c0,5.5-4.7,10.2-10.3,10.2c-13.3-0.6-13.3-19.6,0-20C208.2,22.1,212.5,26.4,212.5,32z"/>
<polygon class="st5" points="120.3,291 131.3,302.5 116.1,306.3 "/>
<polygon class="st6" points="124.8,274.7 148.9,299.2 131.6,302.4 120.2,291.2 "/>
<polygon class="st7" points="150.1,298.6 257.6,191.5 232.6,166.7 125.4,273.5 "/>
<polygon class="st8" points="232.9,166.6 255,144.6 279.8,169.3 257.9,191.3 "/>
<polygon class="st9" points="255.1,144.7 266.4,133.7 291.2,158.4 280.1,169.4 "/>
</svg>
