<?xml version="1.0" encoding="utf-8"?>
<!-- Generator: Adobe Illustrator 27.3.1, SVG Export Plug-In . SVG Version: 6.00 Build 0)  -->
<svg version="1.1" id="Layer_2_00000163061708792128784720000002381887741975202455_"
	 xmlns="http://www.w3.org/2000/svg" xmlns:xlink="http://www.w3.org/1999/xlink" x="0px" y="0px" viewBox="0 0 403.6 403.6"
	 style="enable-background:new 0 0 403.6 403.6;" xml:space="preserve">
<style type="text/css">
	.st0{fill:#011935;stroke:#011935;stroke-miterlimit:10;}
	.st1{fill:#FFFFFF;stroke:#FFFFFF;stroke-miterlimit:10;}
	.st2{fill:#85C7E7;stroke:#85C7E7;stroke-miterlimit:10;}
	.st3{fill:#6481C3;stroke:#6481C3;stroke-miterlimit:10;}
	.st4{fill:#80A2D2;stroke:#80A2D2;stroke-miterlimit:10;}
	.st5{fill:#84E5EE;stroke:#84E5EE;stroke-miterlimit:10;}
</style>
<g>
	<path class="st0" d="M201.8,351.7c-82.8,0-150-67.3-150-150.4c8-199.5,292-199.5,300,0C351.8,284.4,284.6,351.7,201.8,351.7z"/>
	<path class="st1" d="M106.8,237.8c-1.6-8.4-0.3-20.9,3.8-29.4c-0.5-20,3.6-48.9,32.9-75.5c35.5-30.1,82.2-18.8,86.7-17.6l10.1-7.6
		c-52.3-19.8-114.1,4.4-135.1,63.9C96.1,201.7,100.3,220.4,106.8,237.8L106.8,237.8z"/>
	<path class="st1" d="M154.9,290.7c3.6,0.6,8.3,1.1,13.7,0.8c4.6-0.2,8.6-1,11.8-1.8c19.4,5.2,61.8,7,93.9-30.1
		c31.7-39,14.5-88,13.7-90.3l7.7-8.2C335,249.4,240.2,336.8,154.9,290.7L154.9,290.7z"/>
	<path class="st1" d="M214,280.6c0,1.7-1.4,3-3,3c-4-0.2-4-5.9,0-6.1C212.7,277.6,214,279,214,280.6L214,280.6z"/>
	<path class="st1" d="M252.1,257.6c0,1.7-1.4,3-3,3c-4-0.2-4-5.9,0-6.1C250.7,254.5,252.1,255.9,252.1,257.6L252.1,257.6z"/>
	<path class="st1" d="M265.6,257c0,1.7-1.4,3-3,3c-4-0.2-4-5.9,0-6.1C264.2,254,265.6,255.3,265.6,257L265.6,257z"/>
	<path class="st1" d="M252.1,257.6c0,1.7-1.4,3-3,3c-4-0.2-4-5.9,0-6.1C250.7,254.5,252.1,255.9,252.1,257.6L252.1,257.6z"/>
	<path class="st1" d="M271.7,245.8c-0.1,2.7-3.9,2.7-4,0C267.7,243.1,271.6,243.1,271.7,245.8z"/>
	<path class="st1" d="M239.6,247.6c-0.1,2.7-3.9,2.7-4,0C235.7,244.9,239.6,244.9,239.6,247.6z"/>
	<path class="st1" d="M286.7,219.3c-0.1,2.7-3.9,2.7-4,0C282.7,216.7,286.6,216.7,286.7,219.3z"/>
	<path class="st1" d="M261.5,222.3c-0.1,2.7-3.9,2.7-4,0C257.6,219.7,261.5,219.7,261.5,222.3z"/>
	<path class="st1" d="M262.6,205.7c-0.1,2.7-3.9,2.7-4,0C258.7,203,262.6,203,262.6,205.7z"/>
	<path class="st1" d="M284.8,203.9c0,1.2-1,2.2-2.2,2.2c-2.9-0.1-2.9-4.3,0-4.4C283.8,201.7,284.8,202.7,284.8,203.9z"/>
	<path class="st1" d="M283.6,188.9c-0.1,2.4-3.5,2.4-3.6,0C280.1,186.5,283.5,186.5,283.6,188.9z"/>
	<path class="st1" d="M163.4,147.9c0,1.7-1.3,3-3,3c-4-0.1-4-5.9,0-6C162,144.9,163.4,146.3,163.4,147.9L163.4,147.9z"/>
	<path class="st1" d="M200.4,126.5c0,1.9-1.5,3.4-3.4,3.4c-4.5-0.2-4.5-6.6,0-6.8C198.8,123.1,200.4,124.6,200.4,126.5L200.4,126.5z
		"/>
	<path class="st1" d="M214.3,120.9c0,1.2-1,2.2-2.2,2.2c-2.9-0.1-2.9-4.3,0-4.4C213.3,118.7,214.3,119.7,214.3,120.9L214.3,120.9z"
		/>
	<path class="st1" d="M187.8,121.6c0,1.2-1,2.2-2.2,2.2c-2.9-0.1-2.9-4.3,0-4.4C186.8,119.5,187.8,120.4,187.8,121.6L187.8,121.6z"
		/>
	<path class="st1" d="M152.5,139.6c0,1.2-1,2.2-2.2,2.2c-2.9-0.1-2.9-4.3,0-4.4C151.5,137.4,152.5,138.4,152.5,139.6L152.5,139.6z"
		/>
	<path class="st1" d="M128.7,169.1c-0.1,2.5-3.7,2.5-3.8,0C125,166.6,128.6,166.6,128.7,169.1z"/>
	<path class="st1" d="M126.8,181.1c-0.1,2.5-3.7,2.5-3.8,0C123.2,178.6,126.8,178.6,126.8,181.1z"/>
	<path class="st1" d="M217,269.6c8,0.3,13.7,7.2,13.8,14.1c-0.1-7.7,6.2-13.7,13.2-14.1c-1.1-0.1-6.5-0.7-9.7-4.5
		c-1.5-1.8-2.6-4.4-2.6-4.5c-0.5-1.3-0.8-2.5-1-3.4c-0.2,1.3-1.4,6.6-5.4,9.4c-1.7,1.2-4.1,2-4.2,2C219.5,269.3,218,269.5,217,269.6
		L217,269.6z"/>
	<path class="st1" d="M240.2,238c7.4,0.3,12.7,6.6,12.8,13c-0.1-7.1,5.8-12.7,12.2-13c-1-0.1-6-0.7-9-4.1c-1.4-1.7-2.4-4-2.4-4.1
		c-0.5-1.2-0.8-2.3-0.9-3.1c-0.2,1.2-1.3,6.1-5,8.7c-1.6,1.1-3.8,1.9-3.9,1.9C242.6,237.7,241.2,237.9,240.2,238L240.2,238z"/>
	<path class="st1" d="M161.7,133c7.4,0.3,12.7,6.6,12.8,13c-0.1-7.1,5.8-12.7,12.2-13c-1-0.1-6-0.7-9-4.1c-1.4-1.7-2.4-4-2.4-4.1
		c-0.5-1.2-0.8-2.3-0.9-3.1c-0.2,1.2-1.3,6.1-5,8.7c-1.6,1.1-3.8,1.9-3.9,1.9C164,132.7,162.6,132.9,161.7,133z"/>
	<path class="st1" d="M129.1,158.3c6.4,0.3,11,5.8,11.1,11.3c-0.1-6.2,5-11,10.6-11.3c-5.5-0.6-9.3-3.4-10.6-9.9
		c-0.2,1-1.1,5.3-4.3,7.5c-1.4,1-3.3,1.6-3.4,1.6C131.1,158,130,158.2,129.1,158.3L129.1,158.3z"/>
	<path class="st1" d="M265,215.3c3.7,0.2,6.3,3.3,6.4,6.5c0-3.6,2.9-6.4,6.1-6.5c-3.1-0.3-5.4-2-6.1-5.7
		C270.7,212.9,268.8,214.9,265,215.3z"/>
	<path class="st1" d="M265,197.1c3.7,0.2,6.3,3.3,6.4,6.5c0-3.6,2.9-6.4,6.1-6.5c-3.1-0.3-5.4-2-6.1-5.7
		C270.7,194.7,268.8,196.7,265,197.1z"/>
	<path class="st2" d="M277,177.4c1.4-1.3,2.8-2.7,4.2-4c0.8-1,2.3-1,3.1-0.2c0.6,0.7,0.6,2-0.2,2.8c-1.4,1.6-2.8,3.2-4.3,4.8
		C277.4,182.4,275,179.5,277,177.4z"/>
	<path class="st2" d="M223.6,124.9c-0.8-0.9-2.2-1.1-3.3-0.4c-3.4,2.7-6.8,5.4-10.2,8.1c-1.8,1.3-1.9,3.8-0.6,5.1
		c1.3,1.3,3.6,1.3,5-0.3c2.9-3,5.9-6,8.8-9C224.5,127.5,224.5,125.9,223.6,124.9L223.6,124.9z"/>
	<path class="st3" d="M281.9,116.9c4.3-4,8.6-8,12.9-12c1.5-1,3.2,0.9,2.1,2.3c-4.3,4-8.6,8.1-12.9,12.1
		C282.2,120.5,280.5,118.5,281.9,116.9z"/>
	<path class="st3" d="M277.2,110.8c0.6,0.8,2,0.9,2.9,0l14.8-14.5c1-1.5-1.1-3.1-2.3-1.8l-15.3,14.1
		C276.7,109.4,276.7,110.3,277.2,110.8L277.2,110.8z"/>
	<path class="st4" d="M315.9,119.7c0.6,0.7,0.6,1.8,0,2.7c-9.5,10.1-18.9,20.3-28.4,30.4c-1.5,1.9-4.2,1.9-5.6,0.5
		c-1.2-1.3-1.3-3.5,0-5.1c10.2-9.5,20.5-19,30.7-28.4C313.6,118.7,315.1,118.8,315.9,119.7L315.9,119.7z"/>
	<path class="st4" d="M280.5,95.3c-9.3,8.7-18.6,17.4-27.9,26.1c-1.6,1.5-4.1,1.4-5.5-0.1c-1.4-1.4-1.4-3.8,0-5.3
		c10.1-8.1,20.3-16.2,30.4-24.3C280.2,89.6,282.9,93.1,280.5,95.3z"/>
	<path class="st5" d="M217.8,199.4c-0.7,1.8,1.1,3.6,2.8,2.7c15.5-13.2,30.9-26.4,46.4-39.7c2.7-2.5,6.3-2.1,7.7-0.2
		c0.9,1.3,0.9,3.2,0,5l-19.9,24.9c-2.5,3.3-6.3,8.3-11.3,14.4c-5.5,6.6-9.1,10.6-8.4,11.5c0.6,0.7,4.1-1.3,7.4-3.3
		c4.4-2.6,7.9-5.1,10.2-7c-5,10.5-14.9,19.2-20.1,22.8c-5.3,3.8-9.4,5.6-9.1,7.1c0.3,1.1,2.9,1.5,4,1.7c1.2,0.3,6.9-0.4,8.8-0.5
		c-3.3,2.7-8.9,6.8-16.4,10.6c-10.5,5.2-19.7,7.2-19.4,9.1c0.2,1.3,4.6,1.5,5.7,1.6c4.7,0.3,8.2-1.6,9.6-2.4
		c-10.6,15.4-30,25.1-45.8,26.1c-34.3,1.2-58.9-28.4-55.9-59.4c1.9-15.4,12-33.8,25.7-43.9c-0.8,2.1-1.3,5.4-1.2,7.4
		c0.2,3.1,4.4,3.2,4.7,0.1c1.7-12.1,10.4-25.6,22-32.1c-1.4,2.4-3.4,6.1-5.1,10.7c-1.6,4.2-2.6,6.8-1.8,7.3
		c1.3,0.9,6.4-6.6,17.2-15.8c10.4-8.6,18.2-13.4,27.4-19c-8.4,10.3-15.4,20.7-21.3,30.6c-0.6,1.6-0.4,3.2,0.4,3.7
		c0.9,0.7,3.2,0,4.5-2.3c4.5-6.7,9-11.3,12.4-14.2c3.2-2.8,7.9-5.7,17.4-11.7c7.9-5.2,20.3-12.2,28.2-16.2
		c-10.8,11.1-22.6,24.6-32.3,36.8c-1.5,2.5-1.8,4.9,0.6,4.9c2.3-0.1,4.1-2.6,6.8-6c5.1-6.2,8.2-9.1,11.5-12.4
		c4.9-4.6,9-7.5,10.2-8.5c5.9-4.7,13.6-10.8,24.7-19.6c1.8-1.6,4.5,0.7,3.1,2.7c-10.1,10.3-21,21.1-31.4,30.9
		c-1.6,1.4-8.8,7.7-10.8,9.6c-0.1,0.1-0.3,0.3-0.5,0.6c0,0.1-1.1,1.9,0,3.2c0.7,0.9,1.9,1.2,3,0.8
		C225.7,181.2,221.7,190.3,217.8,199.4L217.8,199.4z"/>
	<path class="st4" d="M308.8,106.8c-0.6-0.7-1.9-0.7-2.8,0.2c-9.5,8.5-19,17-28.5,25.5l-36.2,43c2,1.3,4.7,0.8,6.2-0.9
		c20.5-22,41-43.9,61.6-65.9C309.3,108,309.2,107.3,308.8,106.8L308.8,106.8z"/>
	<path class="st1" d="M134.8,260.6c17,17.5,42.4,18.3,64.1,4.1c-7.8,2-20.8,2.7-28.7,1.7c16.5-3.3,28.7-11.3,41.5-18.9
		c-5.9,2.2-14.8,4.2-21.2,4.8c6.8-3.3,16.3-10,21.7-15.2c-8.7,3.3-20.8,6.5-29.9,7.8c8.3-4.4,18.9-12.1,27.2-19.9
		c22.4-20.3,25.3-22.5,44.1-44.8c-16.7,14.7-31.5,24-50.8,35.6c12.5-12.4,31.2-31.5,44.8-47.3c4-4.6,24.9-29.6,30-35.9
		c-17.9,15.8-38.6,32.7-58.1,47.4c-11.5,10.4-31.9,23.5-46.4,29.8c15.4-14.2,28.3-32.8,43.5-53.4c-1.5,1.5-27.8,25.3-35.7,29.5
		c-1,0.6-11.8,6.7-13.1,7.5c-10.4,6-17.3,9.8-24.9,21.4c1.9-7.3,5.1-13.1,11.1-21.2c4.2-6,10.6-14.2,16.9-21
		c-6.9,4.7-12.5,9.1-16.6,12.5c-5.5,4.6-10.4,8.7-16,15.1c-7.4,7.9-12.2,17.2-13.6,27C122.9,237.2,126.2,251.3,134.8,260.6
		L134.8,260.6z"/>
</g>
</svg>
