<?xml version="1.0" encoding="utf-8"?>
<!-- Generator: Adobe Illustrator 27.3.1, SVG Export Plug-In . SVG Version: 6.00 Build 0)  -->
<svg version="1.1" id="Layer_2_00000154420087373331455840000017324838173698344838_"
	 xmlns="http://www.w3.org/2000/svg" xmlns:xlink="http://www.w3.org/1999/xlink" x="0px" y="0px" viewBox="0 0 403.6 403.6"
	 style="enable-background:new 0 0 403.6 403.6;" xml:space="preserve">
<style type="text/css">
	.st0{fill:#6FD16E;stroke:#6FD16E;stroke-miterlimit:10;}
	.st1{fill:#24BC67;stroke:#24BC67;stroke-miterlimit:10;}
	.st2{fill:#0A9E64;stroke:#0A9E64;stroke-miterlimit:10;}
	.st3{fill:#006658;stroke:#006658;stroke-miterlimit:10;}
	.st4{fill:#067666;stroke:#067666;stroke-miterlimit:10;}
	.st5{fill:#004447;stroke:#004447;stroke-miterlimit:10;}
	.st6{fill:#35C266;stroke:#35C266;stroke-miterlimit:10;}
	.st7{fill:#004447;}
	.st8{fill:#FFFFFF;stroke:#FFFFFF;stroke-miterlimit:10;}
</style>
<path class="st0" d="M95.7,237.8c56.2-55.3,116-115.6,171.5-171.2c-62.6-30-135-12.6-177.8,36.4c-15.8,17.1-31.5,46.5-35.6,76.4
	c-1,6.5-1.5,12.8-1.5,15C52.2,195,95,237.4,95.7,237.8L95.7,237.8z"/>
<path class="st1" d="M52.2,194.4l43.5,43.4l8.8-8.8l121.1,121c-44.8,7.7-96.4-8.5-127.1-39.7C76.8,291,48.1,246,52.2,194.4z"/>
<path class="st2" d="M196.1,299.9c-3.4,3.4-6.9,6.9-10.4,10.3c13.2,13.2,26.5,26.5,39.7,39.7c5-0.7,11-2,17-3.7
	C227.1,330.9,211.7,315.4,196.1,299.9L196.1,299.9z"/>
<path class="st3" d="M242.5,346.3c-15.4-15.4-30.9-30.9-46.4-46.4c49.1-49.4,98.2-98.8,147.4-148.2c3.3,9.5,20.2,60.9-6.8,116.1
	C307.9,326.6,251.5,343.7,242.5,346.3z"/>
<polygon class="st4" points="196.1,299.9 185.9,310.3 95.6,220.1 104.8,210.9 "/>
<path class="st4" d="M95.6,220.1c-7.5-8.9-9.1-24.2,0.1-34.9c-0.8,3.4-1.1,6.4-0.4,11.4c1.2,6.7,8.7,13.5,9.6,14.2"/>
<path class="st5" d="M168.5,272.1l27.7,27.9c49.1-49.4,98.2-98.8,147.4-148.2c-3-8.7-8.3-20.1-13.2-28.3"/>
<path class="st6" d="M144.4,180.6c39-38.8,78-77.7,117-116.6c12.1,4.9,29,15.5,38.3,23.8c-41.4,41.4-82.8,82.7-124.2,124.1
	L144.4,180.6L144.4,180.6z"/>
<path class="st7" d="M213.6,231.2c-15,13.6-30.1,27.3-45.1,41"/>
<path class="st8" d="M187.7,267.2c51.7-51.6,103.3-103.1,155-154.7c18.1-23.6-10-52.5-33.6-33.9C264.5,123,220,167.4,175.4,211.9
	l-37.6-38c-9.7-9.5-25.3-9.3-34.7,0.3c-9.3,9.5-9.3,25.1,0,34.8c19.2,19.4,38.5,38.8,57.7,58.2C167.3,274.1,179.6,275.8,187.7,267.2
	L187.7,267.2z"/>
</svg>
