<?xml version="1.0" encoding="UTF-8"?>
<svg id="Layer_2" data-name="Layer 2" xmlns="http://www.w3.org/2000/svg" viewBox="0 0 80 80">
  <defs>
    <style>
      .cls-1 {
        fill: #27b5f5;
        stroke: #27b5f5;
      }

      .cls-1, .cls-2, .cls-3, .cls-4 {
        stroke-miterlimit: 10;
      }

      .cls-2 {
        fill: #afbdc4;
        stroke: #afbdc4;
      }

      .cls-3 {
        fill: #fff;
        stroke: #fff;
      }

      .cls-4 {
        fill: #ced7db;
        stroke: #ced7db;
      }
    </style>
  </defs>
  <path class="cls-1" d="m72.5,40c0,17.95-14.55,32.5-32.5,32.5-43.11-1.71-43.1-63.29,0-65,17.95,0,32.5,14.55,32.5,32.5Z"/>
  <polygon class="cls-2" points="32.18 56.06 38 50.16 33.61 46.52 29.76 50.42 32.18 56.06"/>
  <path class="cls-4" d="m26.39,42.65l5.37,12.45,1.31-9.53,16.55-14.23c.81-.8-.01-1.81-.9-1.23l-22.32,12.54Z"/>
  <path class="cls-3" d="m33.06,46.52c4.68,3.84,9.36,7.68,14.04,11.52,1.08.72,3.08.14,3.31-1.65,2.06-10.6,4.11-21.2,6.17-31.81.3-.85-.44-1.55-1.1-1.24-12.64,4.99-25.27,9.98-37.91,14.96-1.45.44-1.27,2.04-.34,2.49l9.16,2.63,22.32-13.31c.93-.62,1.7.49.9,1.31-5.52,5.03-11.03,10.06-16.55,15.1Z"/>
</svg>